<svg height="512" viewBox="0 0 512 512" width="512" xmlns="http://www.w3.org/2000/svg"><g id="flat"><path d="m56 168h400v320h-400z" fill="#ea9d2d"/><path d="m488 168h-464l20.785-76.21a16 16 0 0 1 15.436-11.79h391.558a16 16 0 0 1 15.436 11.79z" fill="#ebebeb"/><g fill="#c7463b"><path d="m184 80-16 88h56l8-88z"/><path d="m72 168 16-88h48l-16 88z"/><path d="m344 168-16-88h-48l8 88z"/><path d="m424 80 16 88h-48l-16-88z"/></g><path d="m166 24h180a6 6 0 0 1 6 6v50a0 0 0 0 1 0 0h-192a0 0 0 0 1 0 0v-50a6 6 0 0 1 6-6z" fill="#dc4d41"/><path d="m88 216h208v184h-208z" fill="#c3c3c3"/><path d="m88 216h200v176h-200z" fill="#d9d9d9"/><path d="m155 400h74a11 11 0 0 1 11 11v45a0 0 0 0 1 0 0h-96a0 0 0 0 1 0 0v-45a11 11 0 0 1 11-11z" fill="#dc4d41"/><path d="m176 456h32v32h-32z" fill="#bd9070"/><path d="m176 456h32v16h-32z" fill="#b08668"/><path d="m232 456h16v32h-16z" fill="#744630"/><path d="m272 376a8 8 0 0 0 -8 8v56h-24v16h24v32h16v-104a8 8 0 0 0 -8-8z" fill="#744630"/><path d="m120 384a8 8 0 0 0 -16 0v104h16v-32h24v-16h-24z" fill="#744630"/><path d="m136 456h16v32h-16z" fill="#744630"/><path d="m168 432h16v24h-16z" fill="#c7463b"/><path d="m200 432h16v24h-16z" fill="#c7463b"/><path d="m328 440h96v48h-96z" fill="#ebebeb"/><path d="m328 280h96v160h-96z" fill="#b94137"/><path d="m328 288h88v152h-88z" fill="#c7463b"/><path d="m328 464h96v24h-96z" fill="#dbdbdb"/><path d="m328 200h96v48h-96z" fill="#ebebeb"/><path d="m170 248h44a26 26 0 0 1 26 26v6a0 0 0 0 1 0 0h-96a0 0 0 0 1 0 0v-6a26 26 0 0 1 26-26z" fill="#70400e"/><path d="m170 336h44a26 26 0 0 1 26 26v6a0 0 0 0 1 0 0h-96a0 0 0 0 1 0 0v-6a26 26 0 0 1 26-26z" fill="#70400e" transform="matrix(-1 0 0 -1 384 704)"/><path d="m239.994 320a7.973 7.973 0 0 1 -3.572-.847l-12.422-6.209-12.422 6.211a8 8 0 0 1 -7.156 0l-12.422-6.211-12.422 6.211a8 8 0 0 1 -7.156 0l-12.422-6.211-12.422 6.211a8 8 0 0 1 -7.156-14.31l16-8a8 8 0 0 1 7.156 0l12.422 6.211 12.422-6.211a8 8 0 0 1 7.156 0l12.422 6.211 12.422-6.211a8 8 0 0 1 7.156 0l16 8a8 8 0 0 1 -3.584 15.155z" fill="#ea9d2d"/><path d="m360 376a8 8 0 0 1 -8-8v-16a8 8 0 0 1 8-8h16a8 8 0 0 1 0 16h-8v8a8 8 0 0 1 -8 8z" fill="#bd9070"/><path d="m136 456h16v16h-16z" fill="#5b3726"/><path d="m104 456h16v16h-16z" fill="#5b3726"/><path d="m264 456h16v16h-16z" fill="#5b3726"/><path d="m232 456h16v16h-16z" fill="#5b3726"/><path d="m160 64h192v16h-192z" fill="#b94137"/><path d="m56 168h400v16h-400z" fill="#c38325"/><path d="m144 336h96v8h-96z" fill="#5b3726"/><path d="m144 272h96v8h-96z" fill="#5b3726"/><path d="m328 248h96v8h-96z" fill="#c38325"/></g></svg>